<svg xmlns="http://www.w3.org/2000/svg" width="40" height="29" fill="none" viewBox="0 0 40 29"><path fill="#3B4158" fill-rule="evenodd" d="M9.986 4.961 0 14.847a28.268 28.268 0 0 0 6.767 4.947A13.935 13.935 0 0 0 10 24.746c5.523 5.468 14.477 5.468 20 0a13.934 13.934 0 0 0 3.233-4.952A28.265 28.265 0 0 0 40 14.847l-9.978-9.878A4.247 4.247 0 0 0 30 4.947c-5.523-5.467-14.477-5.467-20 0l-.014.014Zm19.059 16.617a28.547 28.547 0 0 1-18.09 0c.316.414.664.811 1.045 1.188 4.418 4.374 11.582 4.374 16 0 .381-.377.73-.774 1.044-1.188ZM12.204 6.729a14.267 14.267 0 0 0 15.59 0c-4.363-4.11-11.227-4.11-15.59 0Z" clip-rule="evenodd"/></svg>