<svg xmlns="http://www.w3.org/2000/svg" width="52" height="21" fill="none" viewBox="0 0 52 21"><g fill="#394149" clip-path="url(#a)"><path d="M12.343.847c-2.03 0-3.978.806-5.414 2.242L2.243 7.776A7.657 7.657 0 1 0 13.07 18.604l3.242-3.241 9.444-9.445A3.657 3.657 0 0 1 31.82 7.37l2.98-2.981a7.657 7.657 0 0 0-11.873-1.3L10.244 15.776a3.657 3.657 0 0 1-5.172-5.172l4.686-4.686a3.657 3.657 0 0 1 6.064 1.452l2.98-2.981A7.651 7.651 0 0 0 12.344.847Z"/><path d="M26.243 15.776a3.657 3.657 0 0 1-6.063-1.451l-2.981 2.98a7.656 7.656 0 0 0 11.872 1.299L41.757 5.918a3.657 3.657 0 1 1 5.172 5.171l-4.686 4.687a3.657 3.657 0 0 1-6.064-1.452l-2.98 2.981a7.657 7.657 0 0 0 11.872 1.3l4.686-4.687A7.657 7.657 0 0 0 38.93 3.089L26.243 15.776Z"/></g><defs><clipPath id="a"><path fill="#fff" d="M0 .847h52v20H0z"/></clipPath></defs></svg>