<svg xmlns="http://www.w3.org/2000/svg" width="48" height="48" fill="none" viewBox="0 0 40 40"><path fill="#263238" fill-rule="evenodd" d="M10 0c5.523 0 10 4.477 10 10V0h10c5.523 0 10 4.477 10 10s-4.477 10-10 10c5.523 0 10 4.477 10 10a9.968 9.968 0 0 1-2.891 7.033l-.038.038-.033.033A9.968 9.968 0 0 1 30 40a9.968 9.968 0 0 1-7.136-2.995A9.968 9.968 0 0 1 20 30c0 5.523-4.477 10-10 10S0 35.523 0 30V20h10C4.477 20 0 15.523 0 10S4.477 0 10 0Zm8 10a8 8 0 0 1-8 8V2a8 8 0 0 1 8 8Zm20 20a8 8 0 1 0-16 0h16ZM2 22v8a8 8 0 1 0 16 0v-8H2Zm20-4V2h8a8 8 0 1 1 0 16h-8Z" clip-rule="evenodd"/></svg>